<svg width="24" height="24" viewBox="0 0 24 24" fill="none" xmlns="http://www.w3.org/2000/svg">
<g id="vuesax/outline/clock">
<g id="clock">
<path id="Vector" d="M12 22.75C6.07 22.75 1.25 17.93 1.25 12C1.25 6.07 6.07 1.25 12 1.25C17.93 1.25 22.75 6.07 22.75 12C22.75 17.93 17.93 22.75 12 22.75ZM12 2.75C6.9 2.75 2.75 6.9 2.75 12C2.75 17.1 6.9 21.25 12 21.25C17.1 21.25 21.25 17.1 21.25 12C21.25 6.9 17.1 2.75 12 2.75Z"/>
<path id="Vector_2" d="M15.7106 15.93C15.5806 15.93 15.4506 15.9 15.3306 15.82L12.2306 13.97C11.4606 13.51 10.8906 12.5 10.8906 11.61V7.51001C10.8906 7.10001 11.2306 6.76001 11.6406 6.76001C12.0506 6.76001 12.3906 7.10001 12.3906 7.51001V11.61C12.3906 11.97 12.6906 12.5 13.0006 12.68L16.1006 14.53C16.4606 14.74 16.5706 15.2 16.3606 15.56C16.2106 15.8 15.9606 15.93 15.7106 15.93Z" />
</g>
</g>
</svg>
